<svg width="29" height="29" viewBox="0 0 29 29" fill="none" xmlns="http://www.w3.org/2000/svg">
<path d="M14.5 2.01392C7.395 2.01392 1.61111 7.0728 1.61111 13.2917C1.61111 19.5106 7.395 24.5695 14.5 24.5695C15.8293 24.5679 17.152 24.3836 18.4311 24.0217L22.8858 26.8572C23.0074 26.9353 23.1478 26.9792 23.2922 26.9843C23.4366 26.9894 23.5797 26.9556 23.7066 26.8864C23.8334 26.8172 23.9393 26.7152 24.0132 26.591C24.087 26.4668 24.1261 26.3251 24.1264 26.1806V20.7592C25.1343 19.7923 25.9387 18.6335 26.492 17.351C27.0454 16.0686 27.3367 14.6884 27.3486 13.2917C27.3889 7.0728 21.605 2.01392 14.5 2.01392ZM22.7892 19.8247C22.7082 19.8999 22.6435 19.9908 22.5992 20.092C22.5548 20.1931 22.5317 20.3023 22.5314 20.4128V24.7145L19.0031 22.467C18.9046 22.4048 18.7939 22.3646 18.6785 22.3493C18.563 22.334 18.4457 22.3439 18.3344 22.3784C17.0929 22.764 15.8001 22.9595 14.5 22.9584C8.28111 22.9584 3.22222 18.6245 3.22222 13.2917C3.22222 7.95892 8.28111 3.62503 14.5 3.62503C20.7189 3.62503 25.7778 7.95892 25.7778 13.2917C25.7594 14.5283 25.4843 15.7476 24.9698 16.8722C24.4553 17.9968 23.7127 19.0023 22.7892 19.8247Z" fill="#0A9B00"/>
<path d="M14.5 16.6187C14.7137 16.6187 14.9186 16.5338 15.0696 16.3827C15.2207 16.2317 15.3056 16.0268 15.3056 15.8131V6.83119C15.3056 6.61754 15.2207 6.41265 15.0696 6.26158C14.9186 6.11051 14.7137 6.02563 14.5 6.02563C14.2864 6.02563 14.0815 6.11051 13.9304 6.26158C13.7793 6.41265 13.6945 6.61754 13.6945 6.83119V15.797C13.6923 15.9042 13.7116 16.0106 13.7511 16.1102C13.7906 16.2098 13.8496 16.3006 13.9246 16.3771C13.9996 16.4536 14.0892 16.5144 14.188 16.5559C14.2868 16.5974 14.3929 16.6187 14.5 16.6187Z" fill="#0A9B00"/>
<path d="M14.5 20.437C15.0917 20.437 15.5714 19.9573 15.5714 19.3656C15.5714 18.7739 15.0917 18.2942 14.5 18.2942C13.9083 18.2942 13.4286 18.7739 13.4286 19.3656C13.4286 19.9573 13.9083 20.437 14.5 20.437Z" fill="#0A9B00"/>
</svg>
