<svg width="28" height="28" viewBox="0 0 28 28" fill="none" xmlns="http://www.w3.org/2000/svg">
<path d="M14 15.8667C14.4951 15.8667 14.9698 15.67 15.3199 15.32C15.67 14.9699 15.8667 14.4951 15.8667 14C15.8667 13.505 15.67 13.0302 15.3199 12.6801C14.9698 12.33 14.4951 12.1334 14 12.1334C13.5049 12.1334 13.0301 12.33 12.6801 12.6801C12.33 13.0302 12.1333 13.505 12.1333 14C12.1333 14.4951 12.33 14.9699 12.6801 15.32C13.0301 15.67 13.5049 15.8667 14 15.8667ZM8.76212 4.92711L12.2043 10.8892C12.247 10.9641 12.2601 11.0523 12.2411 11.1364C12.2221 11.2205 12.1724 11.2945 12.1016 11.3438C11.7225 11.6142 11.4057 11.9626 11.1723 12.3655C10.9389 12.7684 10.7943 13.2166 10.7483 13.6799C10.7406 13.7671 10.7006 13.8482 10.6362 13.9074C10.5718 13.9667 10.4876 13.9997 10.4001 14H3.52332C3.42733 14.0001 3.33234 13.9805 3.24426 13.9423C3.15619 13.9041 3.0769 13.8483 3.01134 13.7781C2.94578 13.708 2.89533 13.6252 2.86315 13.5347C2.83096 13.4443 2.81772 13.3482 2.82425 13.2524C2.93792 11.5429 3.44262 9.88222 4.29945 8.39851C5.15628 6.9148 6.34235 5.64764 7.76625 4.69471C7.84591 4.64154 7.93563 4.60528 8.02986 4.58818C8.12409 4.57108 8.22083 4.57349 8.31409 4.59528C8.40735 4.61706 8.49514 4.65775 8.57205 4.71483C8.64895 4.77191 8.71426 4.84416 8.76212 4.92711ZM19.2388 4.92711L15.7957 10.8892C15.753 10.9641 15.7398 11.0523 15.7588 11.1364C15.7778 11.2205 15.8276 11.2945 15.8984 11.3438C16.2774 11.6142 16.5943 11.9626 16.8277 12.3655C17.0611 12.7684 17.2057 13.2166 17.2517 13.6799C17.2596 13.7668 17.2995 13.8477 17.3636 13.9069C17.4278 13.966 17.5117 13.9992 17.5989 14H24.4776C24.5735 14 24.6684 13.9803 24.7563 13.942C24.8443 13.9038 24.9235 13.8479 24.989 13.7778C25.0544 13.7077 25.1048 13.6249 25.1369 13.5345C25.169 13.4441 25.1822 13.3481 25.1757 13.2524C25.0616 11.543 24.5568 9.88244 23.7002 8.39866C22.8436 6.91489 21.658 5.64742 20.2347 4.69378C20.1549 4.64049 20.0651 4.60416 19.9707 4.58705C19.8763 4.56993 19.7794 4.57238 19.6861 4.59426C19.5927 4.61614 19.5048 4.65698 19.4279 4.71423C19.3509 4.77149 19.2866 4.84395 19.2388 4.92711ZM15.3543 16.9718C15.4335 16.9366 15.5231 16.932 15.6055 16.9591C15.688 16.9862 15.7574 17.0429 15.8004 17.1183L19.2397 23.0739C19.2877 23.1568 19.3181 23.2487 19.3292 23.3439C19.3402 23.439 19.3316 23.5354 19.3038 23.6271C19.2761 23.7188 19.2298 23.8038 19.1679 23.8769C19.106 23.95 19.0297 24.0096 18.9439 24.052C17.406 24.8096 15.7143 25.2024 14 25.2C12.2248 25.2 10.5467 24.7875 9.05518 24.052C8.96951 24.0095 8.89345 23.9499 8.83171 23.8768C8.76998 23.8038 8.72387 23.7188 8.69623 23.6273C8.66859 23.5357 8.66001 23.4394 8.67102 23.3444C8.68204 23.2494 8.7124 23.1577 8.76025 23.0748L12.1996 17.1183C12.2424 17.0428 12.3118 16.9859 12.3943 16.9588C12.4768 16.9317 12.5665 16.9363 12.6457 16.9718C13.0706 17.1667 13.5325 17.2676 14 17.2676C14.4674 17.2676 14.9294 17.1667 15.3543 16.9718Z" fill="white"/>
<path d="M0 14C0 6.27013 6.27013 0 14 0C21.7299 0 28 6.27013 28 14C28 21.7299 21.7299 28 14 28C6.27013 28 0 21.7299 0 14ZM14 1.86667C7.30053 1.86667 1.86667 7.30053 1.86667 14C1.86667 20.6995 7.30053 26.1333 14 26.1333C20.6995 26.1333 26.1333 20.6995 26.1333 14C26.1333 7.30053 20.6995 1.86667 14 1.86667Z" fill="white"/>
</svg>
