<svg width="28" height="24" viewBox="0 0 28 24" fill="none" xmlns="http://www.w3.org/2000/svg">
<path fill-rule="evenodd" clip-rule="evenodd" d="M9.7468 21.8386C5.6266 18.6551 0 13.3963 0 8.42409C0 0.117314 7.7 -2.98432 14 3.43071C20.3 -2.98432 28 0.117314 28 8.42409C28 13.3963 22.372 18.6551 18.2532 21.8386C16.3884 23.2786 15.456 24 14 24C12.544 24 11.6116 23.28 9.7468 21.8386ZM20.3 4.58835C20.5785 4.58835 20.8455 4.6999 21.0425 4.89847C21.2394 5.09703 21.35 5.36635 21.35 5.64716V7.41186H23.1C23.3785 7.41186 23.6455 7.52341 23.8425 7.72198C24.0394 7.92055 24.15 8.18986 24.15 8.47068C24.15 8.75149 24.0394 9.02081 23.8425 9.21937C23.6455 9.41794 23.3785 9.5295 23.1 9.5295H21.35V11.2942C21.35 11.575 21.2394 11.8443 21.0425 12.0429C20.8455 12.2415 20.5785 12.353 20.3 12.353C20.0215 12.353 19.7545 12.2415 19.5575 12.0429C19.3606 11.8443 19.25 11.575 19.25 11.2942V9.5295H17.5C17.2215 9.5295 16.9545 9.41794 16.7575 9.21937C16.5606 9.02081 16.45 8.75149 16.45 8.47068C16.45 8.18986 16.5606 7.92055 16.7575 7.72198C16.9545 7.52341 17.2215 7.41186 17.5 7.41186H19.25V5.64716C19.25 5.36635 19.3606 5.09703 19.5575 4.89847C19.7545 4.6999 20.0215 4.58835 20.3 4.58835Z" fill="white"/>
</svg>
