<svg width="36" height="39" viewBox="0 0 36 39" fill="none" xmlns="http://www.w3.org/2000/svg">
<path d="M24.4617 2.79984C22.7894 0.994297 20.4536 0 17.8755 0C15.2836 0 12.9401 0.988281 11.2755 2.78266C9.59284 4.5968 8.77299 7.06234 8.96549 9.72469C9.34705 14.9772 13.344 19.25 17.8755 19.25C22.407 19.25 26.3971 14.978 26.7846 9.72641C26.9797 7.08812 26.1547 4.62773 24.4617 2.79984ZM33.0005 38.5H2.75049C2.35455 38.5051 1.96243 38.422 1.60268 38.2565C1.24293 38.0911 0.92458 37.8475 0.670804 37.5435C0.11221 36.8758 -0.112946 35.964 0.0537728 35.0419C0.779085 31.0183 3.04268 27.6384 6.60049 25.2656C9.76127 23.1593 13.7651 22 17.8755 22C21.9859 22 25.9897 23.1602 29.1505 25.2656C32.7083 27.6375 34.9719 31.0174 35.6972 35.041C35.8639 35.9631 35.6388 36.8749 35.0802 37.5427C34.8265 37.8468 34.5082 38.0905 34.1484 38.2561C33.7887 38.4217 33.3965 38.505 33.0005 38.5Z" fill="white"/>
</svg>
